<svg width="328.000000" height="328.000000" viewBox="0 0 328 328" fill="none" xmlns="http://www.w3.org/2000/svg" xmlns:xlink="http://www.w3.org/1999/xlink">
	<desc>
			Created with Pixso.
	</desc>
	<defs/>
	<path id="Звезда 1" d="M164 0L162.78 148.54L138.34 2.01L160.38 148.92L113.32 8.02L158.06 149.67L89.54 17.87L155.9 150.78L67.6 31.32L153.93 152.21L48.03 48.03L152.21 153.93L31.32 67.6L150.78 155.9L17.87 89.54L149.67 158.06L8.02 113.32L148.92 160.38L2.01 138.34L148.54 162.78L0 164L148.54 165.21L2.01 189.65L148.92 167.61L8.02 214.67L149.67 169.93L17.87 238.45L150.78 172.09L31.32 260.39L152.21 174.06L48.03 279.96L153.93 175.78L67.6 296.67L155.9 177.21L89.54 310.12L158.06 178.32L113.32 319.97L160.38 179.07L138.34 325.98L162.78 179.45L164 328L165.21 179.45L189.65 325.98L167.61 179.07L214.67 319.97L169.93 178.32L238.45 310.12L172.09 177.21L260.39 296.67L174.06 175.78L279.96 279.96L175.78 174.06L296.67 260.39L177.21 172.09L310.12 238.45L178.32 169.93L319.97 214.67L179.07 167.61L325.98 189.65L179.45 165.21L328 164L179.45 162.78L325.98 138.34L179.07 160.38L319.97 113.32L178.32 158.06L310.12 89.54L177.21 155.9L296.67 67.6L175.78 153.93L279.96 48.03L174.06 152.21L260.39 31.32L172.09 150.78L238.45 17.87L169.93 149.67L214.67 8.02L167.61 148.92L189.65 2.01L165.21 148.54L164 0Z" fill="#C4C4C4" fill-opacity="1.000000" fill-rule="evenodd"/>
</svg>
